<?xml version="1.0" encoding="UTF-8"?>
<!DOCTYPE svg PUBLIC "-//W3C//DTD SVG 1.1//EN" "http://www.w3.org/Graphics/SVG/1.1/DTD/svg11.dtd">
<!-- Creator: CorelDRAW X6 -->
<svg xmlns="http://www.w3.org/2000/svg" xml:space="preserve" width="19.24mm" height="19.2419mm" version="1.1" style="shape-rendering:geometricPrecision; text-rendering:geometricPrecision; image-rendering:optimizeQuality; fill-rule:evenodd; clip-rule:evenodd"
viewBox="0 0 2080 2080"
 xmlns:xlink="http://www.w3.org/1999/xlink">
 <defs>
  <style type="text/css">
   <![CDATA[
    .fil0 {fill:white}
   ]]>
  </style>
 </defs>
 <g id="Capa_x0020_1">
  <metadata id="CorelCorpID_0Corel-Layer"/>
  <g id="_816046496">
   <path class="fil0" d="M1032 1486l-49 17 8 101c-6,82 -13,142 -47,210 -45,93 -94,148 -174,207 -12,9 -74,42 -76,45l-31 11c36,7 1257,2 1290,2 135,0 138,-63 114,-183 -34,-171 -163,-270 -313,-337 -65,-29 -166,-73 -236,-88l-3 16c-6,75 -34,117 -74,150 -19,16 -43,31 -74,40 -43,13 -59,5 -95,11 -32,-7 -72,-15 -89,-34 -9,-4 -14,-7 -20,-12 -4,-3 -3,-2 -8,-7 -4,-4 -3,-4 -4,-6 -1,-1 -2,-1 -3,-2 -1,0 -2,-1 -3,-2l-25 -25c-28,-38 -39,-81 -38,-131l-52 17z"/>
   <path class="fil0" d="M516 1089c15,3 33,3 50,6l48 14c16,-1 26,4 42,11 16,3 3,2 8,-4 -15,-32 -25,-68 -4,-96 10,7 23,18 34,25 8,6 10,7 19,13l19 15 38 14 61 16 -8 -54c-5,-23 -1,-16 -63,-36 -31,-15 -70,-35 -87,-55 -8,-6 -6,-6 -10,-11 -10,-3 -8,-2 -17,-10 -7,-6 -9,-8 -12,-15 -13,-8 -6,0 -12,-15 -1,0 -2,-2 -2,-1l-34 -39c-10,-11 -20,-26 -25,-39 -8,-8 -4,-3 -7,-14 -8,-7 -17,-23 -19,-34 -9,-7 -6,-3 -12,-16l-19 -42 -9 -13 -10 -38c-3,-3 -3,-2 -6,-8 -3,-7 -2,-5 -4,-13 -10,-21 6,-64 16,-75 14,-63 70,-155 103,-192 32,-36 105,-109 158,-129 11,8 21,27 28,40 10,2 6,3 13,12 5,6 9,10 12,15l13 13c11,6 18,14 25,25 12,5 8,1 15,10 7,4 29,17 32,22 13,5 15,5 24,14l33 11c13,2 18,1 28,9l37 3 86 8 15 2 63 1 16 2c51,11 87,32 142,30 5,-195 -97,-353 -268,-426 -198,-84 -370,-46 -530,79 -45,36 -113,130 -133,216 -13,59 -11,99 -6,159 3,39 19,123 13,157 -21,126 -83,269 -152,371 -25,37 -51,67 -76,98 95,60 84,-46 336,-37z"/>
   <path class="fil0" d="M895 889c-4,56 7,117 15,170l16 69 12 32c5,28 22,59 30,86l17 38 36 65 35 51c7,3 4,2 11,9 7,7 7,7 12,14 29,38 90,90 158,109l55 9c44,4 92,-17 122,-36 93,-57 170,-178 215,-276 75,-165 117,-352 20,-519 -88,-151 -278,-218 -450,-179 -155,35 -295,178 -304,357zm241 507c5,11 20,20 34,26l13 7c10,8 23,14 36,14 5,5 0,2 8,6 11,5 1,1 16,4 105,21 178,-18 250,-103 79,-93 115,-186 150,-298l6 -28c6,-17 12,-46 8,-63l5 -30 -1 -33c-10,-9 1,-5 -20,-7 -7,-1 -15,-1 -24,-2 -18,-2 -29,-7 -48,-6 -8,-8 -13,-7 -25,-10 -13,-5 -21,-10 -34,-11 -4,-4 -2,-3 -8,-6 -5,-3 -6,-3 -12,-5l-46 -16 -19 -6 -44 -12c-30,-11 -50,9 -70,26 -20,17 -36,36 -54,55 -21,22 -79,101 -91,136 -10,5 -13,16 -14,26 -9,-7 -4,4 -10,-15 0,-1 -2,-16 -2,-18 -1,-13 -2,-25 -2,-38 0,-33 6,-65 14,-95 10,-34 23,-47 34,-71 -58,31 -124,112 -153,183 -16,-18 -15,-69 -13,-90 4,-34 13,-50 24,-76 -43,16 -90,73 -106,124 -11,35 19,170 40,191 0,19 11,34 18,51l20 39c5,12 3,8 11,15 1,14 -3,2 6,18 3,5 7,11 12,17 6,10 5,9 13,16 3,7 6,11 10,17 2,3 3,4 6,6 6,6 4,4 8,7l12 15c5,8 2,2 9,10 4,5 5,5 10,11 9,10 12,13 25,18z"/>
   <path class="fil0" d="M433 1187c-105,46 -170,87 -221,198 -38,81 -42,177 -13,265 9,27 28,55 31,77l-218 216c-30,43 13,77 31,95 76,77 87,38 165,-41l145 -147c23,3 41,19 66,27 79,26 152,32 233,7 149,-46 189,-144 209,-158 1,-11 23,-49 35,-86 12,-38 12,-62 16,-102l-3 -69c-11,-18 -14,-69 -30,-81 -5,-16 -12,-24 -14,-39 -9,-6 -18,-23 -25,-32 -4,-5 -9,-12 -12,-17 -8,-10 -2,-9 -14,-10 -10,-15 -19,-19 -26,-34l-43 -31c-14,-6 -62,-29 -71,-35l-47 -14 -22 -2 -51 -6c-44,0 -80,6 -120,17zm110 119c122,0 220,99 220,220 0,122 -99,220 -220,220 -122,0 -220,-99 -220,-220 0,-122 99,-220 220,-220z"/>
  </g>
 </g>
</svg>
