<?xml version="1.0" encoding="UTF-8"?>
<!DOCTYPE svg PUBLIC "-//W3C//DTD SVG 1.1//EN" "http://www.w3.org/Graphics/SVG/1.1/DTD/svg11.dtd">
<!-- Creator: CorelDRAW X6 -->
<svg xmlns="http://www.w3.org/2000/svg" xml:space="preserve" width="15.3959mm" height="14.4947mm" version="1.1" style="shape-rendering:geometricPrecision; text-rendering:geometricPrecision; image-rendering:optimizeQuality; fill-rule:evenodd; clip-rule:evenodd"
viewBox="0 0 135 127"
 xmlns:xlink="http://www.w3.org/1999/xlink">
 <defs>
  <style type="text/css">
   <![CDATA[
    .fil0 {fill:white}
   ]]>
  </style>
 </defs>
 <g id="Capa_x0020_1">
  <metadata id="CorelCorpID_0Corel-Layer"/>
  <path class="fil0" d="M9 82l0 29c0,3 1,4 1,6 1,2 2,4 3,5 2,2 6,5 11,5l86 0c8,0 15,-7 15,-16l0 -29c0,-1 -13,-14 -14,-15l-40 -40c-1,-1 -3,-3 -4,-4 -2,1 -48,48 -55,54 -1,1 -4,3 -4,4zm90 -52c-1,-1 -21,-21 -23,-23 -6,-6 -8,-10 -14,-3l-59 59c-1,1 -3,3 -3,6 0,4 5,8 10,2l53 -53c1,-1 3,-3 4,-4 2,1 56,56 57,57 6,6 12,0 10,-4 -1,-2 -2,-3 -3,-4 -5,-5 -9,-9 -14,-14 -2,-2 -2,-1 -2,-5l0 -36c0,-8 -4,-8 -9,-8 -3,0 -5,1 -6,3 -1,2 -1,6 -1,9 0,6 0,13 0,19zm-43 43l26 0 0 42 -30 0 0 -38c0,-2 2,-4 4,-4z"/>
 </g>
</svg>
