<?xml version="1.0" encoding="UTF-8"?>
<!DOCTYPE svg PUBLIC "-//W3C//DTD SVG 1.1//EN" "http://www.w3.org/Graphics/SVG/1.1/DTD/svg11.dtd">
<!-- Creator: CorelDRAW X6 -->
<svg xmlns="http://www.w3.org/2000/svg" xml:space="preserve" width="61.6635mm" height="69.1354mm" version="1.1" style="shape-rendering:geometricPrecision; text-rendering:geometricPrecision; image-rendering:optimizeQuality; fill-rule:evenodd; clip-rule:evenodd"
viewBox="0 0 6166 6914"
 xmlns:xlink="http://www.w3.org/1999/xlink">
 <defs>
  <style type="text/css">
   <![CDATA[
    .fil1 {fill:white}
    .fil0 {fill:black;fill-opacity:0.360784}
   ]]>
  </style>
 </defs>
 <g id="Capa_x0020_1">
  <metadata id="CorelCorpID_0Corel-Layer"/>
  <path class="fil0" d="M3083 6374c1362,0 2465,121 2465,270 0,149 -1104,270 -2465,270 -1362,0 -2465,-121 -2465,-270 0,-149 1104,-270 2465,-270z"/>
  <path class="fil1" d="M2582 65c-233,29 -472,240 -574,365 -129,158 -237,445 -235,715 0,171 -3,342 -2,513 1,77 17,188 -8,254 -8,22 -76,141 -93,156 7,123 -39,166 12,315 31,92 80,163 134,211 82,73 68,109 113,232 33,91 75,167 106,253l74 124 28 38c10,13 27,36 41,54 35,48 22,9 30,60 18,12 18,5 37,36 20,16 23,19 42,43 27,35 18,18 29,51 19,19 9,-1 15,36 0,3 2,35 2,39 1,51 12,195 -14,233 -8,102 -207,239 -295,296 -79,51 -283,179 -370,207 -43,38 -111,64 -171,80 -27,32 -310,160 -356,161l-154 71c-29,32 -284,133 -336,135 -28,33 -86,50 -133,60l-320 133c-225,72 -178,259 -176,502 1,188 -42,491 49,633 61,92 208,83 350,83 155,0 314,4 469,1l758 0 621 0 483 0 1172 0c380,-19 826,-3 1214,-1 202,1 405,-3 607,1 250,4 352,28 429,-179 7,-175 4,-362 2,-538 -2,-172 33,-351 -75,-447 -42,-30 -119,-71 -172,-83l-143 -60c-27,-8 -21,-5 -43,-16 -20,-11 -14,-8 -26,-20 -40,0 -82,-14 -110,-39 -47,-13 -63,-11 -94,-45 -55,-1 -64,-15 -114,-34l-51 -27 -153 -54 -41 -28 -142 -56 -49 -28 -128 -60c-24,-8 -22,-5 -47,-18 -38,-19 -17,-7 -36,-26 -34,-3 -90,-24 -110,-49l-54 -25 -140 -69 -42 -25c-33,-11 -49,-20 -79,-38 -8,-5 -22,-14 -30,-20 -36,-30 -3,6 -13,-15l-53 -29 -128 -80c-24,-13 -14,-1 -39,-31 -43,-22 -94,-61 -114,-92l-41 -46c-48,-47 -55,-66 -54,-156l0 -62 1 -190c76,-40 129,-175 181,-201 18,-47 77,-158 117,-189 3,-33 111,-291 135,-335 21,-106 16,-98 80,-151 55,-45 44,-70 95,-114 37,-106 58,-130 65,-263l-8 -93 -29 -106 -44 -69c-38,-45 -14,-6 -20,-47l-13 -385c1,-138 0,-276 -3,-414l2 -99c-19,-29 -24,-90 -30,-136l-33 -119c-19,-60 -66,-201 -109,-226 -26,-57 -52,-84 -85,-130 -35,-44 -109,-95 -124,-137 -40,-16 -141,-73 -167,-106l-174 -71 -245 -59 -417 -22 -113 10c-76,-8 -242,29 -318,54z"/>
 </g>
</svg>
